<svg height="91" viewBox="0 0 64 91" width="64" xmlns="http://www.w3.org/2000/svg"><g fill="none" fill-rule="evenodd"><rect fill="#44b244" height="91" rx="6" width="64"/><g transform="translate(10 13)"><circle cx="7.74" cy="7.74" fill="#fff" fill-rule="nonzero" r="7.74"/><path d="m10.0707488 4.74125296c.2312676-.32347621.6809764-.39822605 1.0044526-.16695844.3073024.21970422.3901292.63655155.1993606.95502743l-.0324022.04942509-3.78472355 5.29372896c-.2441792.3415358-.72381274.3998604-1.04209702.1381924l-.04236504-.0376689-2.25672476-2.16757212c-.28678519-.27545565-.2959696-.73124191-.02051395-1.0180271.26095799-.27169124.68376394-.29423385.97139172-.06164255l.04663538.0411286 1.65639742 1.59059367z" fill="#44b244" transform="matrix(.99254615 .12186934 -.12186934 .99254615 1.008331 -.872374)"/></g><rect fill="#fff" fill-rule="nonzero" height="3" rx="1.5" width="24" x="31" y="19"/><g transform="translate(10 38)"><circle cx="7.74" cy="7.74" fill="#fff" fill-rule="nonzero" r="7.74"/><path d="m10.0707488 4.74125296c.2312676-.32347621.6809764-.39822605 1.0044526-.16695844.3073024.21970422.3901292.63655155.1993606.95502743l-.0324022.04942509-3.78472355 5.29372896c-.2441792.3415358-.72381274.3998604-1.04209702.1381924l-.04236504-.0376689-2.25672476-2.16757212c-.28678519-.27545565-.2959696-.73124191-.02051395-1.0180271.26095799-.27169124.68376394-.29423385.97139172-.06164255l.04663538.0411286 1.65639742 1.59059367z" fill="#44b244" transform="matrix(.99254615 .12186934 -.12186934 .99254615 1.008331 -.872374)"/></g><rect fill="#fff" fill-rule="nonzero" height="3" rx="1.5" width="24" x="31" y="44"/><g transform="translate(10 63)"><circle cx="7.74" cy="7.74" fill="#fff" fill-rule="nonzero" r="7.74"/><path d="m10.0707488 4.74125296c.2312676-.32347621.6809764-.39822605 1.0044526-.16695844.3073024.21970422.3901292.63655155.1993606.95502743l-.0324022.04942509-3.78472355 5.29372896c-.2441792.3415358-.72381274.3998604-1.04209702.1381924l-.04236504-.0376689-2.25672476-2.16757212c-.28678519-.27545565-.2959696-.73124191-.02051395-1.0180271.26095799-.27169124.68376394-.29423385.97139172-.06164255l.04663538.0411286 1.65639742 1.59059367z" fill="#44b244" transform="matrix(.99254615 .12186934 -.12186934 .99254615 1.008331 -.872374)"/></g><rect fill="#fff" fill-rule="nonzero" height="3" rx="1.5" width="24" x="31" y="69"/></g></svg>