<svg height="105" viewBox="0 0 107 105" width="107" xmlns="http://www.w3.org/2000/svg"><g fill="none" fill-rule="evenodd"><g fill="#171717"><path d="m75.2539062 0h-48c-4.4182779 0-8 3.581722-8 8v89c0 4.418278 3.5817221 8 8 8h48c4.418278 0 8-3.581722 8-8v-89c0-4.418278-3.581722-8-8-8zm-48 4h48c2.209139 0 4 1.790861 4 4v89c0 2.209139-1.790861 4-4 4h-48c-2.2091389 0-4-1.790861-4-4v-89c0-2.209139 1.7908611-4 4-4z" fill-rule="nonzero"/><circle cx="70.753906" cy="52.5" r="3.5"/><rect height="3" rx="1.5" width="8" x="64.253906" y="51"/><path d="m104.988281 101c1.10457 0 2 .895431 2 2 0 1.054362-.815878 1.918165-1.850737 1.994514l-.149263.005486h-102.988281c-1.1045695 0-2-.895431-2-2 0-1.054362.81587779-1.918165 1.85073766-1.994514l.14926234-.005486z" fill-rule="nonzero"/></g><rect fill="#44b244" height="39.9" rx="2.1" width="30.45" x="29" y="33"/><g transform="translate(34.25 39.3)"><circle cx="3.65715" cy="3.65715" fill="#fff" fill-rule="nonzero" r="3.65715"/><path d="m4.75842883 2.24024202c.10927394-.15284251.32176131-.18816181.47460382-.07888786.14520038.10381024.18433607.30077061.09419789.45125046l-.01531003.02335336-1.78828188 2.50128693c-.11537468.16137566-.34200152.18893404-.49239084.0652959l-.02001748-.01779855-1.06630245-1.02417782c-.13550601-.1301528-.13984564-.34551181-.00969284-.48101781.12330264-.12837411.32307846-.13902549.45898258-.0291261l.02203522.01943326.78264778.75155551z" fill="#44b244" transform="matrix(.99254615 .12186934 -.12186934 .99254615 .476437 -.412197)"/></g><rect fill="#fff" fill-rule="nonzero" height="1.575" rx=".7875" width="10.5" x="43.175" y="42.45"/><g transform="translate(34.25 49.8)"><circle cx="3.65715" cy="3.65715" fill="#fff" fill-rule="nonzero" r="3.65715"/><path d="m4.75842883 2.24024202c.10927394-.15284251.32176131-.18816181.47460382-.07888786.14520038.10381024.18433607.30077061.09419789.45125046l-.01531003.02335336-1.78828188 2.50128693c-.11537468.16137566-.34200152.18893404-.49239084.0652959l-.02001748-.01779855-1.06630245-1.02417782c-.13550601-.1301528-.13984564-.34551181-.00969284-.48101781.12330264-.12837411.32307846-.13902549.45898258-.0291261l.02203522.01943326.78264778.75155551z" fill="#44b244" transform="matrix(.99254615 .12186934 -.12186934 .99254615 .476437 -.412197)"/></g><rect fill="#fff" fill-rule="nonzero" height="1.575" rx=".7875" width="10.5" x="43.175" y="52.95"/><g transform="translate(34.25 60.3)"><circle cx="3.65715" cy="3.65715" fill="#fff" fill-rule="nonzero" r="3.65715"/><path d="m4.75842883 2.24024202c.10927394-.15284251.32176131-.18816181.47460382-.07888786.14520038.10381024.18433607.30077061.09419789.45125046l-.01531003.02335336-1.78828188 2.50128693c-.11537468.16137566-.34200152.18893404-.49239084.0652959l-.02001748-.01779855-1.06630245-1.02417782c-.13550601-.1301528-.13984564-.34551181-.00969284-.48101781.12330264-.12837411.32307846-.13902549.45898258-.0291261l.02203522.01943326.78264778.75155551z" fill="#44b244" transform="matrix(.99254615 .12186934 -.12186934 .99254615 .476437 -.412197)"/></g><rect fill="#fff" fill-rule="nonzero" height="1.575" rx=".7875" width="10.5" x="43.175" y="63.45"/></g></svg>