<?xml version="1.0" encoding="UTF-8"?>
<svg width="64px" height="91px" viewBox="0 0 64 91" version="1.1" xmlns="http://www.w3.org/2000/svg" xmlns:xlink="http://www.w3.org/1999/xlink">
    <!-- Generator: sketchtool 63.1 (101010) - https://sketch.com -->
    <title>8F965D1A-00D2-4785-9F8D-8C99CBE52269</title>
    <desc>Created with sketchtool.</desc>
    <g id="Page-1" stroke="none" stroke-width="1" fill="none" fill-rule="evenodd">
        <g id="covid-V2" transform="translate(-336.000000, -1272.000000)">
            <g id="CCM" transform="translate(248.000000, 999.000000)">
                <g id="aidée" transform="translate(0.000000, 86.000000)">
                    <g id="3-steps" transform="translate(0.000000, 172.000000)">
                        <g id="Group-18" transform="translate(0.000000, 15.000000)">
                            <g id="Group-5" transform="translate(88.000000, 0.000000)">
                                <rect id="Rectangle" fill="#44B244" x="0" y="0" width="64" height="91" rx="6"></rect>
                                <g id="Group-3" transform="translate(10.000000, 13.000000)">
                                    <g id="Group-4">
                                        <g id="Group-2">
                                            <circle id="Oval" fill="#FFFFFF" fill-rule="nonzero" cx="7.74" cy="7.74" r="7.74"></circle>
                                            <path d="M10.0707488,4.74125296 C10.3020164,4.41777675 10.7517252,4.34302691 11.0752014,4.57429452 C11.3825038,4.79399874 11.4653306,5.21084607 11.274562,5.52932195 L11.2421598,5.57874704 L7.45743625,10.872476 C7.21325705,11.2140118 6.73362351,11.2723364 6.41533923,11.0106684 L6.37297419,10.9729995 L4.11624943,8.80542738 C3.82946424,8.52997173 3.82027983,8.07418547 4.09573548,7.78740028 C4.35669347,7.51570904 4.77949942,7.49316643 5.0671272,7.72575773 L5.11376258,7.76688633 L6.77016,9.35748 L10.0707488,4.74125296 Z" id="Path-5" fill="#44B244" transform="translate(7.635758, 7.806850) rotate(7.000000) translate(-7.635758, -7.806850) "></path>
                                        </g>
                                        <rect id="Rectangle" fill="#FFFFFF" fill-rule="nonzero" x="21" y="6" width="24" height="3" rx="1.5"></rect>
                                    </g>
                                    <g id="Group-4-Copy" transform="translate(0.000000, 25.000000)">
                                        <g id="Group-2">
                                            <circle id="Oval" fill="#FFFFFF" fill-rule="nonzero" cx="7.74" cy="7.74" r="7.74"></circle>
                                            <path d="M10.0707488,4.74125296 C10.3020164,4.41777675 10.7517252,4.34302691 11.0752014,4.57429452 C11.3825038,4.79399874 11.4653306,5.21084607 11.274562,5.52932195 L11.2421598,5.57874704 L7.45743625,10.872476 C7.21325705,11.2140118 6.73362351,11.2723364 6.41533923,11.0106684 L6.37297419,10.9729995 L4.11624943,8.80542738 C3.82946424,8.52997173 3.82027983,8.07418547 4.09573548,7.78740028 C4.35669347,7.51570904 4.77949942,7.49316643 5.0671272,7.72575773 L5.11376258,7.76688633 L6.77016,9.35748 L10.0707488,4.74125296 Z" id="Path-5" fill="#44B244" transform="translate(7.635758, 7.806850) rotate(7.000000) translate(-7.635758, -7.806850) "></path>
                                        </g>
                                        <rect id="Rectangle" fill="#FFFFFF" fill-rule="nonzero" x="21" y="6" width="24" height="3" rx="1.5"></rect>
                                    </g>
                                    <g id="Group-4-Copy-2" transform="translate(0.000000, 50.000000)">
                                        <g id="Group-2">
                                            <circle id="Oval" fill="#FFFFFF" fill-rule="nonzero" cx="7.74" cy="7.74" r="7.74"></circle>
                                            <path d="M10.0707488,4.74125296 C10.3020164,4.41777675 10.7517252,4.34302691 11.0752014,4.57429452 C11.3825038,4.79399874 11.4653306,5.21084607 11.274562,5.52932195 L11.2421598,5.57874704 L7.45743625,10.872476 C7.21325705,11.2140118 6.73362351,11.2723364 6.41533923,11.0106684 L6.37297419,10.9729995 L4.11624943,8.80542738 C3.82946424,8.52997173 3.82027983,8.07418547 4.09573548,7.78740028 C4.35669347,7.51570904 4.77949942,7.49316643 5.0671272,7.72575773 L5.11376258,7.76688633 L6.77016,9.35748 L10.0707488,4.74125296 Z" id="Path-5" fill="#44B244" transform="translate(7.635758, 7.806850) rotate(7.000000) translate(-7.635758, -7.806850) "></path>
                                        </g>
                                        <rect id="Rectangle" fill="#FFFFFF" fill-rule="nonzero" x="21" y="6" width="24" height="3" rx="1.5"></rect>
                                    </g>
                                </g>
                            </g>
                        </g>
                    </g>
                </g>
            </g>
        </g>
    </g>
</svg>