<svg height="105" viewBox="0 0 107 105" width="107" xmlns="http://www.w3.org/2000/svg"><g fill="none" fill-rule="evenodd"><g fill="#171717"><path d="m75 0h-48c-4.418278 0-8 3.581722-8 8v89c0 4.418278 3.581722 8 8 8h48c4.418278 0 8-3.581722 8-8v-89c0-4.418278-3.581722-8-8-8zm-48 4.15841584h48c2.209139 0 4 1.7850115 4 3.98693478v88.70929878c0 2.2019233-1.790861 3.9869346-4 3.9869346h-48c-2.209139 0-4-1.7850113-4-3.9869346v-88.70929878c0-2.20192328 1.790861-3.98693478 4-3.98693478z" fill-rule="nonzero"/><g><circle cx="70.753906" cy="47.5" r="3.5"/><rect height="3" rx="1.5" width="8" x="64.253906" y="46"/></g><path d="m104.988281 101c1.10457 0 2 .895431 2 2 0 1.054362-.815878 1.918165-1.850737 1.994514l-.149263.005486h-102.988281c-1.1045695 0-2-.895431-2-2 0-1.054362.81587779-1.918165 1.85073766-1.994514l.14926234-.005486z" fill-rule="nonzero"/></g><path d="m39.5835 78.23675h25.23675v20.84775h-25.23675z" fill="#fff"/><g fill="#44b244" transform="translate(33 53)"><path d="m28 30v5c.4286555 4.8408936-3.80071 9-9 9s-9.42865552-4.1591064-9-9v-5c-1.29674093.0907687-2-.6008718-2-1 0-1.3083594.70325907-2 2-2h3c.5821188 0 1.2857703.6916406 1 2 .2857703.3991282-.4178812 1.0907687-1 1v5c-.2855741 3.1368796 2.5341337 5.9092313 6 6 3.4662588-.0907687 6.2855741-2.8631204 6-6v-5c-.5821188.0907687-1.2857703-.6008718-1-1-.2857703-1.3083594.4178812-2 1-2h3c1.2963485 0 2 .6916406 2 2 0 .3991282-.7036515 1.0907687-2 1zm-28-8c.01847957.0591475-.00525641.1151404 0 0l3 24c.05549819 3.583628 2.76298229 6 6 6h20c3.2376986 0 5.9439959-2.416372 6-6l3-24c.0055417.1151404-.0185898.0591475 0 0z"/><path d="m12.9492679 10.227672-6.25174431 2.568648c-.3624546.1489648-.77668842-.0238981-.92605157-.3863527l-.08205016-.2003458c-.14896486-.3628529.0238981-.777485.38635269-.9260516l6.25174425-2.56904625c.3624546-.14856655.7770867.02469471.9260516.386751l.0824485.20074408c.1485665.36205629-.0242965.77668837-.386751.92565327zm0 4.906281-6.25174431 2.5690462c-.3624546.1489649-.77668842-.0242964-.92605157-.3863527l-.08205016-.200744c-.14896486-.3620563.0238981-.7766885.38635269-.9256533l6.25174425-2.568648c.3624546-.1493631.7770867.0238981.9260516.3863527l.0824485.2003458c.1485665.3624546-.0242965.7766884-.386751.9256533zm2.908001-2.0771437c-.5396988-7.47293741-2.4053442-13.05672964-6.22904104-13.05672964-3.63968139 0-5.66146107 5.58379223-6.22545635 13.05672964l-.0234998 6.6942575h12.67555489z"/><path d="m33.6259481 10.9192433-3.5102333-1.72305335 2.3690988-4.825824 3.5102333 1.72265507z"/><path d="m36.0597311 6.12484533-3.6396813-1.78638335c-.6910536-.33935309-.9762376-1.17499016-.6368845-1.8660437l.2788112-.56837659c.3393531-.69105354 1.1745918-.97623759 1.8656454-.6368845l3.6396814 1.78638335c.6914518.33935309.9762376 1.17459186.6372828 1.86604369l-.2792096.5679783c-.3389547.69145184-1.1745918.97663589-1.8656454.6372828"/><path d="m34.6911663 19.8409635.9531361-1.941721c1.6652996-3.3927343.265269-7.4928525-3.127067-9.15775382-3.3927343-1.66529962-7.4928525-.26487067-9.1577539 3.12706702l-3.9133147 7.9724078z"/></g></g></svg>