<svg height="40" viewBox="0 0 290 40" width="290" xmlns="http://www.w3.org/2000/svg" xmlns:xlink="http://www.w3.org/1999/xlink"><mask id="a" fill="#fff"><path d="m0 39.5808h289.9659v-39.5808h-289.9659z" fill="#fff" fill-rule="evenodd"/></mask><g fill="none" fill-rule="evenodd"><g fill="#000"><path d="m50.69502 33.16626c-2.7279 0-5.0481-.9243-6.9609-2.7732-1.9131-1.8489-2.8692-4.3017-2.8692-7.359 0-3.0384.9699-5.4918 2.9106-7.359 1.9401-1.8669 4.2375-2.8008 6.8919-2.8008 2.343 0 4.2699.5952 5.7801 1.785 1.5102 1.1901 2.5032 2.7006 2.9793 4.5306l-3.1029 1.0437c-.3114-1.2633-.9429-2.2881-1.8945-3.0756-.9522-.7866-2.2062-1.1808-3.762-1.1808-1.7391 0-3.2448.618-4.5168 1.8537-1.2726 1.2354-1.9083 2.97-1.9083 5.2032 0 2.1786.6315 3.8853 1.8945 5.121 1.2633 1.2357 2.7825 1.8537 4.5582 1.8537 1.5192 0 2.7732-.4119 3.7617-1.236.9885-.8238 1.6656-1.8396 2.0319-3.048l3.0204.9888c-.4761 1.812-1.4784 3.3408-3.0066 4.5855-1.5285 1.245-3.4644 1.8672-5.8074 1.8672"/><path d="m65.31681 29.17104c.723.7596 1.6062 1.1394 2.6499 1.1394 1.0434 0 1.9263-.3747 2.6496-1.1256.723-.7506 1.0845-1.794 1.0845-3.1305 0-1.3179-.3615-2.3475-1.0845-3.0891-.7233-.741-1.6062-1.1121-2.6496-1.1121-1.0437 0-1.9269.3711-2.6499 1.1121-.7233.7416-1.0845 1.7712-1.0845 3.0891 0 1.3182.3612 2.3574 1.0845 3.1167m2.6499-10.2009c2.0133 0 3.6747.6687 4.9836 2.0046 1.3086 1.3365 1.9632 3.0297 1.9632 5.0796 0 2.0505-.6546 3.7482-1.9632 5.0937-1.3089 1.3455-2.9703 2.0181-4.9836 2.0181-1.9956 0-3.648-.6726-4.9563-2.0181-1.3092-1.3455-1.9632-3.0432-1.9632-5.0937 0-2.0499.654-3.7431 1.9632-5.0796 1.3083-1.3359 2.9607-2.0046 4.9563-2.0046"/><path d="m89.65839 19.38207-5.2443 13.3722h-3.1854l-5.4369-13.3722h3.5148l3.5421 9.5556 3.4599-9.5556z"/><path d="m91.9926 32.7543h3.1575v-13.3722h-3.1575zm.1095-16.6122c-.4029-.4026-.6039-.8877-.6039-1.4553 0-.5673.201-1.0572.6039-1.4691.4026-.4119.8877-.618 1.4553-.618.5856 0 1.08.2016 1.4829.6042.4023.4029.6039.897.6039 1.4829 0 .5676-.2016 1.0527-.6039 1.4553-.4029.4029-.8973.6039-1.4829.6039-.5676 0-1.0527-.201-1.4553-.6039z" mask="url(#a)"/><path d="m101.41056 26.02689c0 1.2816.3294 2.3112.9885 3.0891.6591.7785 1.5282 1.1673 2.6085 1.1673 1.0434 0 1.8948-.3936 2.5536-1.1808.6591-.7869.9885-1.8213.9885-3.1029 0-1.2633-.3204-2.2695-.9609-3.0204-.6411-.7503-1.4922-1.1259-2.5536-1.1259-1.062 0-1.9317.3801-2.6088 1.1397-.6774.7596-1.0158 1.7709-1.0158 3.0339zm10.2144-13.1526v17.436c0 .8976.0456 1.7121.1374 2.4441h-3.048c-.0915-.5124-.1371-1.089-.1371-1.7301-.3294.6042-.8421 1.0983-1.5378 1.4829-.696.3846-1.4922.5766-2.3889.5766-1.9041 0-3.4506-.6678-4.6404-2.0043-1.1901-1.3362-1.7847-3.0207-1.7847-5.0526 0-1.9584.5991-3.615 1.7985-4.9698 1.1988-1.3545 2.7225-2.0319 4.5717-2.0319 1.0614 0 1.9173.1923 2.5674.5766.6495.3843 1.1028.8331 1.3593 1.3452v-8.0727z" mask="url(#a)"/><path d="m114.9747 26.1369h7.7433v-2.8281h-7.7433z" mask="url(#a)"/><path d="m138.89121 17.84427-2.9655.9336c-.1284-.7503-.5037-1.4367-1.1259-2.0592-.6225-.6222-1.5195-.9336-2.6907-.9336-.9708 0-1.7712.2745-2.4027.8238-.6318.549-.9474 1.2081-.9474 1.977 0 1.3365.7593 2.169 2.2791 2.4987l2.8008.5766c1.6839.3294 2.9835.9981 3.8991 2.0043.915 1.0071 1.3728 2.2062 1.3728 3.5973 0 1.611-.6177 2.9976-1.8534 4.1598-1.2357 1.1628-2.9154 1.7436-5.0388 1.7436-2.2884 0-4.0731-.5994-5.3541-1.7985-1.2816-1.1988-2.0046-2.5947-2.1693-4.1874l3.0753-.8787c.1098 1.0986.5493 2.0232 1.3179 2.7735.7689.7506 1.8123 1.1256 3.1302 1.1256 1.1349 0 2.0091-.2514 2.6226-.7551.6129-.5034.9195-1.1484.9195-1.9356 0-.6408-.2289-1.1946-.6864-1.6614-.4578-.4668-1.0983-.7917-1.9218-.9747l-2.7459-.5766c-1.5198-.3111-2.7231-.9429-3.6108-1.8948-.8883-.9516-1.3317-2.1417-1.3317-3.5694 0-1.6293.6495-3.0297 1.9494-4.2012 1.2996-1.1712 2.8557-1.7574 4.668-1.7574 2.0682 0 3.6519.4989 4.7502 1.4964 1.0983.9981 1.7847 2.1555 2.0595 3.4734" mask="url(#a)"/><path d="m145.30299 29.17104c.723.7596 1.6062 1.1394 2.6499 1.1394 1.0434 0 1.9263-.3747 2.6496-1.1256.723-.7506 1.0845-1.794 1.0845-3.1305 0-1.3179-.3615-2.3475-1.0845-3.0891-.7233-.741-1.6062-1.1121-2.6496-1.1121-1.0437 0-1.9269.3711-2.6499 1.1121-.7233.7416-1.0845 1.7712-1.0845 3.0891 0 1.3182.3612 2.3574 1.0845 3.1167m2.6499-10.2009c2.0133 0 3.6744.6687 4.9833 2.0046 1.3089 1.3365 1.9635 3.0297 1.9635 5.0796 0 2.0505-.6546 3.7482-1.9635 5.0937s-2.97 2.0181-4.9833 2.0181c-1.9956 0-3.648-.6726-4.9563-2.0181-1.3092-1.3455-1.9632-3.0432-1.9632-5.0937 0-2.0499.654-3.7431 1.9632-5.0796 1.3083-1.3359 2.9607-2.0046 4.9563-2.0046" mask="url(#a)"/><path d="m157.9749 32.7543h3.1851v-19.8801h-3.1851z" mask="url(#a)"/><path d="m165.2787 32.7543h3.1578v-13.3722h-3.1578zm.1098-16.6122c-.4029-.4026-.6042-.8877-.6042-1.4553 0-.5673.2013-1.0572.6042-1.4691.4026-.4119.8877-.618 1.4553-.618.5859 0 1.08.2016 1.4829.6042.4023.4029.6042.897.6042 1.4829 0 .5676-.2019 1.0527-.6042 1.4553-.4029.4029-.897.6039-1.4829.6039-.5676 0-1.0527-.201-1.4553-.6039z" mask="url(#a)"/><path d="m174.69696 26.02689c0 1.2816.3297 2.3112.9885 3.0891.6588.7785 1.5282 1.1673 2.6085 1.1673 1.0434 0 1.8948-.3936 2.5536-1.1808.6591-.7869.9885-1.8213.9885-3.1029 0-1.2633-.3204-2.2695-.9609-3.0204-.6411-.7503-1.4922-1.1259-2.5536-1.1259-1.062 0-1.9314.3801-2.6085 1.1397-.6777.7596-1.0161 1.7709-1.0161 3.0339zm10.2144-13.1526v17.436c0 .8976.0456 1.7121.1374 2.4441h-3.0477c-.0921-.5124-.1374-1.089-.1374-1.7301-.3297.6042-.8424 1.0983-1.5378 1.4829-.696.3846-1.4922.5766-2.3889.5766-1.9041 0-3.4506-.6678-4.6404-2.0043-1.1901-1.3362-1.7847-3.0207-1.7847-5.0526 0-1.9584.5994-3.615 1.7985-4.9698 1.1985-1.3545 2.7225-2.0319 4.5717-2.0319 1.0614 0 1.9176.1923 2.5674.5766.6495.3843 1.1028.8331 1.3593 1.3452v-8.0727z" mask="url(#a)"/><path d="m193.34091 30.66753c.9885 0 1.7892-.2697 2.4027-.81.6132-.5397.9198-1.4232.9198-2.6496v-.6042l-3.4872.5214c-1.1904.2019-1.7847.8061-1.7847 1.8123 0 .4764.1737.8838.5214 1.2222.3477.339.8238.5079 1.428.5079m-5.1345-1.5378c0-1.1346.3705-2.0454 1.1118-2.7318.7413-.6867 1.7163-1.1214 2.9244-1.3044l3.4323-.5217c.6591-.0915.9885-.4119.9885-.9609 0-.6042-.2106-1.0938-.6315-1.4694-.4215-.375-1.053-.5628-1.8948-.5628-.8055 0-1.446.2244-1.9221.6726-.4761.4488-.7506 1.0299-.8235 1.7439l-2.9106-.6591c.1278-1.2081.7041-2.2377 1.7298-3.0891 1.0248-.8511 2.3244-1.2768 3.8991-1.2768 1.9401 0 3.3726.4665 4.2972 1.4004.9243.9336 1.3866 2.1327 1.3866 3.597v6.6447c0 .879.0549 1.593.165 2.142h-2.9655c-.0921-.2745-.1374-.8418-.1374-1.7025-.8787 1.4097-2.2518 2.1144-4.119 2.1144-1.3548 0-2.4483-.3981-3.2811-1.1943-.8334-.7965-1.2492-1.7439-1.2492-2.8422" mask="url(#a)"/><path d="m211.46337 19.29975v3.24c-.3666-.0549-.714-.0825-1.0437-.0825-2.3982 0-3.597 1.3092-3.597 3.9267v6.3705h-3.1851v-13.3725h3.1029v2.142c.3111-.714.8145-1.2771 1.5102-1.6887.6954-.4119 1.4826-.6177 2.3613-.6177.2928 0 .5769.027.8514.0822" mask="url(#a)"/><path d="m214.1265 32.7543h3.1578v-13.3722h-3.1578zm.1098-16.6122c-.4029-.4026-.6042-.8877-.6042-1.4553 0-.5673.2013-1.0572.6042-1.4691.4026-.4119.8877-.618 1.4556-.618.5856 0 1.0797.2016 1.4826.6042.4023.4029.6042.897.6042 1.4829 0 .5676-.2019 1.0527-.6042 1.4553-.4029.4029-.897.6039-1.4826.6039-.5679 0-1.053-.201-1.4556-.6039z" mask="url(#a)"/><path d="m225.43944 15.29076v4.0914h2.7732v2.8281h-2.7732v6.2055c0 .5862.1374 1.0119.4119 1.2771.2745.2655.7044.3981 1.2906.3981.366 0 .7317-.0366 1.0983-.1098v2.6358c-.4764.2013-1.1259.3021-1.9497.3021-1.2447 0-2.2239-.3522-2.9379-1.0572-.714-.7044-1.0707-1.6791-1.0707-2.9244v-6.7272h-2.4717v-2.8281h.6864c.6771 0 1.1898-.1923 1.5378-.5766.3477-.3843.522-.8877.522-1.5102v-2.0046z" mask="url(#a)"/><path d="m235.76337 38.16372h-3.405l3.2127-7.002-5.7114-11.7795h3.5973l3.8439 8.457 3.597-8.457h3.3774z" mask="url(#a)"/><path d="m244.20675 32.27388c-.4305-.4302-.645-.9564-.645-1.5789 0-.6222.2145-1.1532.645-1.5924.4299-.4395.9564-.6594 1.5789-.6594.6222 0 1.1532.2199 1.5924.6594.4395.4392.6594.9702.6594 1.5924 0 .6225-.2199 1.1487-.6594 1.5789-.4392.4305-.9702.645-1.5924.645-.6225 0-1.149-.2145-1.5789-.645" mask="url(#a)"/><path d="m254.66835 29.17104c.723.7596 1.6062 1.1394 2.6496 1.1394 1.0437 0 1.9266-.3747 2.6499-1.1256.7227-.7506 1.0845-1.794 1.0845-3.1305 0-1.3179-.3618-2.3475-1.0845-3.0891-.7233-.741-1.6062-1.1121-2.6499-1.1121-1.0434 0-1.9266.3711-2.6496 1.1121-.7233.7416-1.0845 1.7712-1.0845 3.0891 0 1.3182.3612 2.3574 1.0845 3.1167m2.6496-10.2009c2.0136 0 3.6747.6687 4.9836 2.0046 1.3089 1.3365 1.9635 3.0297 1.9635 5.0796 0 2.0505-.6546 3.7482-1.9635 5.0937s-2.97 2.0181-4.9836 2.0181c-1.9953 0-3.6474-.6726-4.956-2.0181-1.3092-1.3455-1.9632-3.0432-1.9632-5.0937 0-2.0499.654-3.7431 1.9632-5.0796 1.3086-1.3359 2.9607-2.0046 4.956-2.0046" mask="url(#a)"/><path d="m275.16591 19.29975v3.24c-.3666-.0549-.714-.0825-1.0437-.0825-2.3982 0-3.597 1.3092-3.597 3.9267v6.3705h-3.1851v-13.3725h3.1029v2.142c.3111-.714.8145-1.2771 1.5102-1.6887.6954-.4119 1.4826-.6177 2.3613-.6177.2928 0 .5769.027.8514.0822" mask="url(#a)"/><path d="m283.45839 29.43177c1.0248 0 1.8534-.3432 2.4849-1.0296s.9471-1.6062.9471-2.7597c0-1.1346-.3204-2.0454-.9609-2.7318-.6408-.6864-1.4649-1.0299-2.4711-1.0299-1.0254 0-1.863.3435-2.5125 1.0299-.6501.6864-.9747 1.5972-.9747 2.7318 0 1.1535.3198 2.0733.9609 2.7597.6405.6864 1.4826 1.0296 2.5263 1.0296m-6.7275 4.0641 2.9382-.7692c.1095.8421.471 1.5333 1.0845 2.0733.6129.5397 1.3683.81 2.2653.81 2.5263 0 3.7893-1.3362 3.7893-4.0089v-1.4004c-.3114.5676-.8058 1.0344-1.4826 1.4004-.6777.3663-1.4739.5493-2.3889.5493-1.7946 0-3.2724-.6132-4.4346-1.8399-1.1625-1.2261-1.7436-2.7822-1.7436-4.668 0-1.8123.5766-3.3498 1.7298-4.6128 1.1532-1.2633 2.6361-1.8945 4.4484-1.8945 1.9584 0 3.2766.6498 3.9537 1.9494v-1.7025h3.0753v12.1092c0 1.977-.5583 3.6198-1.6749 4.9287-1.1166 1.3086-2.8467 1.9635-5.1894 1.9635-1.7211 0-3.1671-.4671-4.3383-1.4004-1.1721-.9336-1.8492-2.0964-2.0322-3.4872" mask="url(#a)"/></g><path d="m21.61611 22.76292v3.6039c0 3.9747-3.2331 7.2075-7.2075 7.2075-3.9747 0-7.2078-3.2328-7.2078-7.2075v-3.6039c-.6636 0-1.2012-.5376-1.2012-1.2012s.5376-1.2012 1.2012-1.2012h2.4027c.6633 0 1.2012.5376 1.2012 1.2012s-.5379 1.2012-1.2012 1.2012v3.6039c0 2.6502 2.1555 4.8051 4.8051 4.8051s4.8048-2.1549 4.8048-4.8051v-3.6039c-.6633 0-1.2012-.5376-1.2012-1.2012s.5379-1.2012 1.2012-1.2012h2.4027c.6633 0 1.2012.5376 1.2012 1.2012s-.5379 1.2012-1.2012 1.2012zm-21.6021-6.0063c0 .045-.018.0876-.0132.1326l2.0457 18.4167c.2706 2.4366 2.3238 4.275 4.7757 4.275h15.1722c2.4528 0 4.5051-1.8384 4.7751-4.275l2.0466-18.4167c.0051-.045-.0132-.0876-.0132-.1326z" fill="#44b244" mask="url(#a)"/><path d="m9.75336 7.70346-4.7088 1.9347c-.273.1122-.585-.018-.6975-.291l-.0618-.1509c-.1122-.2733.018-.5856.291-.6975l4.7088-1.935c.273-.1119.5853.0186.6975.2913l.0621.1512c.1119.2727-.0183.585-.2913.6972zm0 3.6954-4.7088 1.935c-.273.1122-.585-.0183-.6975-.291l-.0618-.1512c-.1122-.2727.018-.585.291-.6972l4.7088-1.9347c.273-.1125.5853.018.6975.291l.0621.1509c.1119.273-.0183.585-.2913.6972zm2.1903-1.5645c-.4065-5.6286-1.8117-9.8343-4.6917-9.8343-2.7414 0-4.2642 4.2057-4.689 9.8343l-.0177 5.0421h9.5472z" fill="#44b244" mask="url(#a)"/><path d="m25.32699 8.22435-2.6439-1.2978 1.7844-3.6348 2.6439 1.2975z" fill="#44b244" mask="url(#a)"/><path d="m27.16011 4.61322-2.7414-1.3455c-.5205-.2556-.7353-.885-.4797-1.4055l.21-.4281c.2556-.5205.8847-.7353 1.4052-.4797l2.7414 1.3455c.5208.2556.7353.8847.48 1.4055l-.2103.4278c-.2553.5208-.8847.7356-1.4052.48" fill="#44b244" mask="url(#a)"/><path d="m26.12931 14.94417.7179-1.4625c1.2543-2.5554.1998-5.6436-2.3553-6.8976-2.5554-1.2543-5.6436-.1995-6.8976 2.3553l-2.9475 6.0048z" fill="#44b244" mask="url(#a)"/></g></svg>