<?xml version="1.0" encoding="UTF-8"?>
<svg width="290px" height="40px" viewBox="0 0 290 40" version="1.1" xmlns="http://www.w3.org/2000/svg" xmlns:xlink="http://www.w3.org/1999/xlink">
    <!-- Generator: sketchtool 63.1 (101010) - https://sketch.com -->
    <title>BDAAEB96-5DAA-43AF-B601-EDB1FECF23D0</title>
    <desc>Created with sketchtool.</desc>
    <defs>
        <polygon id="path-1" points="0 39.5808 289.9659 39.5808 289.9659 0 0 0"></polygon>
    </defs>
    <g id="Page-1" stroke="none" stroke-width="1" fill="none" fill-rule="evenodd">
        <g id="covid" transform="translate(-117.000000, -25.000000)">
            <g id="Group-30" transform="translate(117.000000, 25.000000)">
                <path d="M50.69502,33.16626 C47.96712,33.16626 45.64692,32.24196 43.73412,30.39306 C41.82102,28.54416 40.86492,26.09136 40.86492,23.03406 C40.86492,19.99566 41.83482,17.54226 43.77552,15.67506 C45.71562,13.80816 48.01302,12.87426 50.66742,12.87426 C53.01042,12.87426 54.93732,13.46946 56.44752,14.65926 C57.95772,15.84936 58.95072,17.35986 59.42682,19.18986 L56.32392,20.23356 C56.01252,18.97026 55.38102,17.94546 54.42942,17.15796 C53.47722,16.37136 52.22322,15.97716 50.66742,15.97716 C48.92832,15.97716 47.42262,16.59516 46.15062,17.83086 C44.87802,19.06626 44.24232,20.80086 44.24232,23.03406 C44.24232,25.21266 44.87382,26.91936 46.13682,28.15506 C47.40012,29.39076 48.91932,30.00876 50.69502,30.00876 C52.21422,30.00876 53.46822,29.59686 54.45672,28.77276 C55.44522,27.94896 56.12232,26.93316 56.48862,25.72476 L59.50902,26.71356 C59.03292,28.52556 58.03062,30.05436 56.50242,31.29906 C54.97392,32.54406 53.03802,33.16626 50.69502,33.16626" id="Fill-1" fill="#000000"></path>
                <path d="M65.31681,29.17104 C66.03981,29.93064 66.92301,30.31044 67.96671,30.31044 C69.01011,30.31044 69.89301,29.93574 70.61631,29.18484 C71.33931,28.43424 71.70081,27.39084 71.70081,26.05434 C71.70081,24.73644 71.33931,23.70684 70.61631,22.96524 C69.89301,22.22424 69.01011,21.85314 67.96671,21.85314 C66.92301,21.85314 66.03981,22.22424 65.31681,22.96524 C64.59351,23.70684 64.23231,24.73644 64.23231,26.05434 C64.23231,27.37254 64.59351,28.41174 65.31681,29.17104 M67.96671,18.97014 C69.98001,18.97014 71.64141,19.63884 72.95031,20.97474 C74.25891,22.31124 74.91351,24.00444 74.91351,26.05434 C74.91351,28.10484 74.25891,29.80254 72.95031,31.14804 C71.64141,32.49354 69.98001,33.16614 67.96671,33.16614 C65.97111,33.16614 64.31871,32.49354 63.01041,31.14804 C61.70121,29.80254 61.04721,28.10484 61.04721,26.05434 C61.04721,24.00444 61.70121,22.31124 63.01041,20.97474 C64.31871,19.63884 65.97111,18.97014 67.96671,18.97014" id="Fill-3" fill="#000000"></path>
                <polygon id="Fill-5" fill="#000000" points="89.65839 19.38207 84.41409 32.75427 81.22869 32.75427 75.79179 19.38207 79.30659 19.38207 82.84869 28.93767 86.30859 19.38207"></polygon>
                <mask id="mask-2" fill="white">
                    <use xlink:href="#path-1"></use>
                </mask>
                <g id="Clip-8"></g>
                <path d="M91.9926,32.7543 L95.1501,32.7543 L95.1501,19.3821 L91.9926,19.3821 L91.9926,32.7543 Z M92.1021,16.1421 C91.6992,15.7395 91.4982,15.2544 91.4982,14.6868 C91.4982,14.1195 91.6992,13.6296 92.1021,13.2177 C92.5047,12.8058 92.9898,12.5997 93.5574,12.5997 C94.143,12.5997 94.6374,12.8013 95.0403,13.2039 C95.4426,13.6068 95.6442,14.1009 95.6442,14.6868 C95.6442,15.2544 95.4426,15.7395 95.0403,16.1421 C94.6374,16.545 94.143,16.746 93.5574,16.746 C92.9898,16.746 92.5047,16.545 92.1021,16.1421 L92.1021,16.1421 Z" id="Fill-7" fill="#000000" mask="url(#mask-2)"></path>
                <path d="M101.41056,26.02689 C101.41056,27.30849 101.73996,28.33809 102.39906,29.11599 C103.05816,29.89449 103.92726,30.28329 105.00756,30.28329 C106.05096,30.28329 106.90236,29.88969 107.56116,29.10249 C108.22026,28.31559 108.54966,27.28119 108.54966,25.99959 C108.54966,24.73629 108.22926,23.73009 107.58876,22.97919 C106.94766,22.22889 106.09656,21.85329 105.03516,21.85329 C103.97316,21.85329 103.10346,22.23339 102.42636,22.99299 C101.74896,23.75259 101.41056,24.76389 101.41056,26.02689 L101.41056,26.02689 Z M111.62496,12.87429 L111.62496,30.31029 C111.62496,31.20789 111.67056,32.02239 111.76236,32.75439 L108.71436,32.75439 C108.62286,32.24199 108.57726,31.66539 108.57726,31.02429 C108.24786,31.62849 107.73516,32.12259 107.03946,32.50719 C106.34346,32.89179 105.54726,33.08379 104.65056,33.08379 C102.74646,33.08379 101.19996,32.41599 100.01016,31.07949 C98.82006,29.74329 98.22546,28.05879 98.22546,26.02689 C98.22546,24.06849 98.82456,22.41189 100.02396,21.05709 C101.22276,19.70259 102.74646,19.02519 104.59566,19.02519 C105.65706,19.02519 106.51296,19.21749 107.16306,19.60179 C107.81256,19.98609 108.26586,20.43489 108.52236,20.94699 L108.52236,12.87429 L111.62496,12.87429 Z" id="Fill-9" fill="#000000" mask="url(#mask-2)"></path>
                <polygon id="Fill-10" fill="#000000" mask="url(#mask-2)" points="114.9747 26.1369 122.718 26.1369 122.718 23.3088 114.9747 23.3088"></polygon>
                <path d="M138.89121,17.84427 L135.92571,18.77787 C135.79731,18.02757 135.42201,17.34117 134.79981,16.71867 C134.17731,16.09647 133.28031,15.78507 132.10911,15.78507 C131.13831,15.78507 130.33791,16.05957 129.70641,16.60887 C129.07461,17.15787 128.75901,17.81697 128.75901,18.58587 C128.75901,19.92237 129.51831,20.75487 131.03811,21.08457 L133.83891,21.66117 C135.52281,21.99057 136.82241,22.65927 137.73801,23.66547 C138.65301,24.67257 139.11081,25.87167 139.11081,27.26277 C139.11081,28.87377 138.49311,30.26037 137.25741,31.42257 C136.02171,32.58537 134.34201,33.16617 132.21861,33.16617 C129.93021,33.16617 128.14551,32.56677 126.86451,31.36767 C125.58291,30.16887 124.85991,28.77297 124.69521,27.18027 L127.77051,26.30157 C127.88031,27.40017 128.31981,28.32477 129.08841,29.07507 C129.85731,29.82567 130.90071,30.20067 132.21861,30.20067 C133.35351,30.20067 134.22771,29.94927 134.84121,29.44557 C135.45411,28.94217 135.76071,28.29717 135.76071,27.50997 C135.76071,26.86917 135.53181,26.31537 135.07431,25.84857 C134.61651,25.38177 133.97601,25.05687 133.15251,24.87387 L130.40661,24.29727 C128.88681,23.98617 127.68351,23.35437 126.79581,22.40247 C125.90751,21.45087 125.46411,20.26077 125.46411,18.83307 C125.46411,17.20377 126.11361,15.80337 127.41351,14.63187 C128.71311,13.46067 130.26921,12.87447 132.08151,12.87447 C134.14971,12.87447 135.73341,13.37337 136.83171,14.37087 C137.93001,15.36897 138.61641,16.52637 138.89121,17.84427" id="Fill-11" fill="#000000" mask="url(#mask-2)"></path>
                <path d="M145.30299,29.17104 C146.02599,29.93064 146.90919,30.31044 147.95289,30.31044 C148.99629,30.31044 149.87919,29.93574 150.60249,29.18484 C151.32549,28.43424 151.68699,27.39084 151.68699,26.05434 C151.68699,24.73644 151.32549,23.70684 150.60249,22.96524 C149.87919,22.22424 148.99629,21.85314 147.95289,21.85314 C146.90919,21.85314 146.02599,22.22424 145.30299,22.96524 C144.57969,23.70684 144.21849,24.73644 144.21849,26.05434 C144.21849,27.37254 144.57969,28.41174 145.30299,29.17104 M147.95289,18.97014 C149.96619,18.97014 151.62729,19.63884 152.93619,20.97474 C154.24509,22.31124 154.89969,24.00444 154.89969,26.05434 C154.89969,28.10484 154.24509,29.80254 152.93619,31.14804 C151.62729,32.49354 149.96619,33.16614 147.95289,33.16614 C145.95729,33.16614 144.30489,32.49354 142.99659,31.14804 C141.68739,29.80254 141.03339,28.10484 141.03339,26.05434 C141.03339,24.00444 141.68739,22.31124 142.99659,20.97474 C144.30489,19.63884 145.95729,18.97014 147.95289,18.97014" id="Fill-12" fill="#000000" mask="url(#mask-2)"></path>
                <polygon id="Fill-13" fill="#000000" mask="url(#mask-2)" points="157.9749 32.7543 161.16 32.7543 161.16 12.8742 157.9749 12.8742"></polygon>
                <path d="M165.2787,32.7543 L168.4365,32.7543 L168.4365,19.3821 L165.2787,19.3821 L165.2787,32.7543 Z M165.3885,16.1421 C164.9856,15.7395 164.7843,15.2544 164.7843,14.6868 C164.7843,14.1195 164.9856,13.6296 165.3885,13.2177 C165.7911,12.8058 166.2762,12.5997 166.8438,12.5997 C167.4297,12.5997 167.9238,12.8013 168.3267,13.2039 C168.729,13.6068 168.9309,14.1009 168.9309,14.6868 C168.9309,15.2544 168.729,15.7395 168.3267,16.1421 C167.9238,16.545 167.4297,16.746 166.8438,16.746 C166.2762,16.746 165.7911,16.545 165.3885,16.1421 L165.3885,16.1421 Z" id="Fill-14" fill="#000000" mask="url(#mask-2)"></path>
                <path d="M174.69696,26.02689 C174.69696,27.30849 175.02666,28.33809 175.68546,29.11599 C176.34426,29.89449 177.21366,30.28329 178.29396,30.28329 C179.33736,30.28329 180.18876,29.88969 180.84756,29.10249 C181.50666,28.31559 181.83606,27.28119 181.83606,25.99959 C181.83606,24.73629 181.51566,23.73009 180.87516,22.97919 C180.23406,22.22889 179.38296,21.85329 178.32156,21.85329 C177.25956,21.85329 176.39016,22.23339 175.71306,22.99299 C175.03536,23.75259 174.69696,24.76389 174.69696,26.02689 L174.69696,26.02689 Z M184.91136,12.87429 L184.91136,30.31029 C184.91136,31.20789 184.95696,32.02239 185.04876,32.75439 L182.00106,32.75439 C181.90896,32.24199 181.86366,31.66539 181.86366,31.02429 C181.53396,31.62849 181.02126,32.12259 180.32586,32.50719 C179.62986,32.89179 178.83366,33.08379 177.93696,33.08379 C176.03286,33.08379 174.48636,32.41599 173.29656,31.07949 C172.10646,29.74329 171.51186,28.05879 171.51186,26.02689 C171.51186,24.06849 172.11126,22.41189 173.31036,21.05709 C174.50886,19.70259 176.03286,19.02519 177.88206,19.02519 C178.94346,19.02519 179.79966,19.21749 180.44946,19.60179 C181.09896,19.98609 181.55226,20.43489 181.80876,20.94699 L181.80876,12.87429 L184.91136,12.87429 Z" id="Fill-15" fill="#000000" mask="url(#mask-2)"></path>
                <path d="M193.34091,30.66753 C194.32941,30.66753 195.13011,30.39783 195.74361,29.85753 C196.35681,29.31783 196.66341,28.43433 196.66341,27.20793 L196.66341,26.60373 L193.17621,27.12513 C191.98581,27.32703 191.39151,27.93123 191.39151,28.93743 C191.39151,29.41383 191.56521,29.82123 191.91291,30.15963 C192.26061,30.49863 192.73671,30.66753 193.34091,30.66753 M188.20641,29.12973 C188.20641,27.99513 188.57691,27.08433 189.31821,26.39793 C190.05951,25.71123 191.03451,25.27653 192.24261,25.09353 L195.67491,24.57183 C196.33401,24.48033 196.66341,24.15993 196.66341,23.61093 C196.66341,23.00673 196.45281,22.51713 196.03191,22.14153 C195.61041,21.76653 194.97891,21.57873 194.13711,21.57873 C193.33161,21.57873 192.69111,21.80313 192.21501,22.25133 C191.73891,22.70013 191.46441,23.28123 191.39151,23.99523 L188.48091,23.33613 C188.60871,22.12803 189.18501,21.09843 190.21071,20.24703 C191.23551,19.39593 192.53511,18.97023 194.10981,18.97023 C196.04991,18.97023 197.48241,19.43673 198.40701,20.37063 C199.33131,21.30423 199.79361,22.50333 199.79361,23.96763 L199.79361,30.61233 C199.79361,31.49133 199.84851,32.20533 199.95861,32.75433 L196.99311,32.75433 C196.90101,32.47983 196.85571,31.91253 196.85571,31.05183 C195.97701,32.46153 194.60391,33.16623 192.73671,33.16623 C191.38191,33.16623 190.28841,32.76813 189.45561,31.97193 C188.62221,31.17543 188.20641,30.22803 188.20641,29.12973" id="Fill-16" fill="#000000" mask="url(#mask-2)"></path>
                <path d="M211.46337,19.29975 L211.46337,22.53975 C211.09677,22.48485 210.74937,22.45725 210.41967,22.45725 C208.02147,22.45725 206.82267,23.76645 206.82267,26.38395 L206.82267,32.75445 L203.63757,32.75445 L203.63757,19.38195 L206.74047,19.38195 L206.74047,21.52395 C207.05157,20.80995 207.55497,20.24685 208.25067,19.83525 C208.94607,19.42335 209.73327,19.21755 210.61197,19.21755 C210.90477,19.21755 211.18887,19.24455 211.46337,19.29975" id="Fill-17" fill="#000000" mask="url(#mask-2)"></path>
                <path d="M214.1265,32.7543 L217.2843,32.7543 L217.2843,19.3821 L214.1265,19.3821 L214.1265,32.7543 Z M214.2363,16.1421 C213.8334,15.7395 213.6321,15.2544 213.6321,14.6868 C213.6321,14.1195 213.8334,13.6296 214.2363,13.2177 C214.6389,12.8058 215.124,12.5997 215.6919,12.5997 C216.2775,12.5997 216.7716,12.8013 217.1745,13.2039 C217.5768,13.6068 217.7787,14.1009 217.7787,14.6868 C217.7787,15.2544 217.5768,15.7395 217.1745,16.1421 C216.7716,16.545 216.2775,16.746 215.6919,16.746 C215.124,16.746 214.6389,16.545 214.2363,16.1421 L214.2363,16.1421 Z" id="Fill-18" fill="#000000" mask="url(#mask-2)"></path>
                <path d="M225.43944,15.29076 L225.43944,19.38216 L228.21264,19.38216 L228.21264,22.21026 L225.43944,22.21026 L225.43944,28.41576 C225.43944,29.00196 225.57684,29.42766 225.85134,29.69286 C226.12584,29.95836 226.55574,30.09096 227.14194,30.09096 C227.50794,30.09096 227.87364,30.05436 228.24024,29.98116 L228.24024,32.61696 C227.76384,32.81826 227.11434,32.91906 226.29054,32.91906 C225.04584,32.91906 224.06664,32.56686 223.35264,31.86186 C222.63864,31.15746 222.28194,30.18276 222.28194,28.93746 L222.28194,22.21026 L219.81024,22.21026 L219.81024,19.38216 L220.49664,19.38216 C221.17374,19.38216 221.68644,19.18986 222.03444,18.80556 C222.38214,18.42126 222.55644,17.91786 222.55644,17.29536 L222.55644,15.29076 L225.43944,15.29076 Z" id="Fill-19" fill="#000000" mask="url(#mask-2)"></path>
                <polygon id="Fill-20" fill="#000000" mask="url(#mask-2)" points="235.76337 38.16372 232.35837 38.16372 235.57107 31.16172 229.85967 19.38222 233.45697 19.38222 237.30087 27.83922 240.89787 19.38222 244.27527 19.38222"></polygon>
                <path d="M244.20675,32.27388 C243.77625,31.84368 243.56175,31.31748 243.56175,30.69498 C243.56175,30.07278 243.77625,29.54178 244.20675,29.10258 C244.63665,28.66308 245.16315,28.44318 245.78565,28.44318 C246.40785,28.44318 246.93885,28.66308 247.37805,29.10258 C247.81755,29.54178 248.03745,30.07278 248.03745,30.69498 C248.03745,31.31748 247.81755,31.84368 247.37805,32.27388 C246.93885,32.70438 246.40785,32.91888 245.78565,32.91888 C245.16315,32.91888 244.63665,32.70438 244.20675,32.27388" id="Fill-21" fill="#000000" mask="url(#mask-2)"></path>
                <path d="M254.66835,29.17104 C255.39135,29.93064 256.27455,30.31044 257.31795,30.31044 C258.36165,30.31044 259.24455,29.93574 259.96785,29.18484 C260.69055,28.43424 261.05235,27.39084 261.05235,26.05434 C261.05235,24.73644 260.69055,23.70684 259.96785,22.96524 C259.24455,22.22424 258.36165,21.85314 257.31795,21.85314 C256.27455,21.85314 255.39135,22.22424 254.66835,22.96524 C253.94505,23.70684 253.58385,24.73644 253.58385,26.05434 C253.58385,27.37254 253.94505,28.41174 254.66835,29.17104 M257.31795,18.97014 C259.33155,18.97014 260.99265,19.63884 262.30155,20.97474 C263.61045,22.31124 264.26505,24.00444 264.26505,26.05434 C264.26505,28.10484 263.61045,29.80254 262.30155,31.14804 C260.99265,32.49354 259.33155,33.16614 257.31795,33.16614 C255.32265,33.16614 253.67055,32.49354 252.36195,31.14804 C251.05275,29.80254 250.39875,28.10484 250.39875,26.05434 C250.39875,24.00444 251.05275,22.31124 252.36195,20.97474 C253.67055,19.63884 255.32265,18.97014 257.31795,18.97014" id="Fill-22" fill="#000000" mask="url(#mask-2)"></path>
                <path d="M275.16591,19.29975 L275.16591,22.53975 C274.79931,22.48485 274.45191,22.45725 274.12221,22.45725 C271.72401,22.45725 270.52521,23.76645 270.52521,26.38395 L270.52521,32.75445 L267.34011,32.75445 L267.34011,19.38195 L270.44301,19.38195 L270.44301,21.52395 C270.75411,20.80995 271.25751,20.24685 271.95321,19.83525 C272.64861,19.42335 273.43581,19.21755 274.31451,19.21755 C274.60731,19.21755 274.89141,19.24455 275.16591,19.29975" id="Fill-23" fill="#000000" mask="url(#mask-2)"></path>
                <path d="M283.45839,29.43177 C284.48319,29.43177 285.31179,29.08857 285.94329,28.40217 C286.57479,27.71577 286.89039,26.79597 286.89039,25.64247 C286.89039,24.50787 286.56999,23.59707 285.92949,22.91067 C285.28869,22.22427 284.46459,21.88077 283.45839,21.88077 C282.43299,21.88077 281.59539,22.22427 280.94589,22.91067 C280.29579,23.59707 279.97119,24.50787 279.97119,25.64247 C279.97119,26.79597 280.29099,27.71577 280.93209,28.40217 C281.57259,29.08857 282.41469,29.43177 283.45839,29.43177 M276.73089,33.49587 L279.66909,32.72667 C279.77859,33.56877 280.14009,34.25997 280.75359,34.79997 C281.36649,35.33967 282.12189,35.60997 283.01889,35.60997 C285.54519,35.60997 286.80819,34.27377 286.80819,31.60107 L286.80819,30.20067 C286.49679,30.76827 286.00239,31.23507 285.32559,31.60107 C284.64789,31.96737 283.85169,32.15037 282.93669,32.15037 C281.14209,32.15037 279.66429,31.53717 278.50209,30.31047 C277.33959,29.08437 276.75849,27.52827 276.75849,25.64247 C276.75849,23.83017 277.33509,22.29267 278.48829,21.02967 C279.64149,19.76637 281.12439,19.13517 282.93669,19.13517 C284.89509,19.13517 286.21329,19.78497 286.89039,21.08457 L286.89039,19.38207 L289.96569,19.38207 L289.96569,31.49127 C289.96569,33.46827 289.40739,35.11107 288.29079,36.41997 C287.17419,37.72857 285.44409,38.38347 283.10139,38.38347 C281.38029,38.38347 279.93429,37.91637 278.76309,36.98307 C277.59099,36.04947 276.91389,34.88667 276.73089,33.49587" id="Fill-24" fill="#000000" mask="url(#mask-2)"></path>
                <path d="M21.61611,22.76292 L21.61611,26.36682 C21.61611,30.34152 18.38301,33.57432 14.40861,33.57432 C10.43391,33.57432 7.20081,30.34152 7.20081,26.36682 L7.20081,22.76292 C6.53721,22.76292 5.99961,22.22532 5.99961,21.56172 C5.99961,20.89812 6.53721,20.36052 7.20081,20.36052 L9.60351,20.36052 C10.26681,20.36052 10.80471,20.89812 10.80471,21.56172 C10.80471,22.22532 10.26681,22.76292 9.60351,22.76292 L9.60351,26.36682 C9.60351,29.01702 11.75901,31.17192 14.40861,31.17192 C17.05821,31.17192 19.21341,29.01702 19.21341,26.36682 L19.21341,22.76292 C18.55011,22.76292 18.01221,22.22532 18.01221,21.56172 C18.01221,20.89812 18.55011,20.36052 19.21341,20.36052 L21.61611,20.36052 C22.27941,20.36052 22.81731,20.89812 22.81731,21.56172 C22.81731,22.22532 22.27941,22.76292 21.61611,22.76292 L21.61611,22.76292 Z M0.01401,16.75662 C0.01401,16.80162 -0.00399,16.84422 0.00081,16.88922 L2.04651,35.30592 C2.31711,37.74252 4.37031,39.58092 6.82221,39.58092 L21.99441,39.58092 C24.44721,39.58092 26.49951,37.74252 26.76951,35.30592 L28.81611,16.88922 C28.82121,16.84422 28.80291,16.80162 28.80291,16.75662 L0.01401,16.75662 Z" id="Fill-25" fill="#44B244" mask="url(#mask-2)"></path>
                <path d="M9.75336,7.70346 L5.04456,9.63816 C4.77156,9.75036 4.45956,9.62016 4.34706,9.34716 L4.28526,9.19626 C4.17306,8.92296 4.30326,8.61066 4.57626,8.49876 L9.28506,6.56376 C9.55806,6.45186 9.87036,6.58236 9.98256,6.85506 L10.04466,7.00626 C10.15656,7.27896 10.02636,7.59126 9.75336,7.70346 L9.75336,7.70346 Z M9.75336,11.39886 L5.04456,13.33386 C4.77156,13.44606 4.45956,13.31556 4.34706,13.04286 L4.28526,12.89166 C4.17306,12.61896 4.30326,12.30666 4.57626,12.19446 L9.28506,10.25976 C9.55806,10.14726 9.87036,10.27776 9.98256,10.55076 L10.04466,10.70166 C10.15656,10.97466 10.02636,11.28666 9.75336,11.39886 L9.75336,11.39886 Z M11.94366,9.83436 C11.53716,4.20576 10.13196,6e-05 7.25196,6e-05 C4.51056,6e-05 2.98776,4.20576 2.56296,9.83436 L2.54526,14.87646 L12.09246,14.87646 L11.94366,9.83436 Z" id="Fill-26" fill="#44B244" mask="url(#mask-2)"></path>
                <polygon id="Fill-27" fill="#44B244" mask="url(#mask-2)" points="25.32699 8.22435 22.68309 6.92655 24.46749 3.29175 27.11139 4.58925"></polygon>
                <path d="M27.16011,4.61322 L24.41871,3.26772 C23.89821,3.01212 23.68341,2.38272 23.93901,1.86222 L24.14901,1.43412 C24.40461,0.91362 25.03371,0.69882 25.55421,0.95442 L28.29561,2.29992 C28.81641,2.55552 29.03091,3.18462 28.77561,3.70542 L28.56531,4.13322 C28.31001,4.65402 27.68061,4.86882 27.16011,4.61322" id="Fill-28" fill="#44B244" mask="url(#mask-2)"></path>
                <path d="M26.12931,14.94417 L26.84721,13.48167 C28.10151,10.92627 27.04701,7.83807 24.49191,6.58407 C21.93651,5.32977 18.84831,6.38457 17.59431,8.93937 L14.64681,14.94417 L26.12931,14.94417 Z" id="Fill-29" fill="#44B244" mask="url(#mask-2)"></path>
            </g>
        </g>
    </g>
</svg>